/* XPM */ 
static const unsigned char * deepestsender_xpm[] = {
"32 32 488 2",
"  	c None",
"! 	c black",
"# 	c #B5B0B4",
"$ 	c #D0C6BF",
"% 	c #CDC5C1",
"& 	c #CFC7C4",
"' 	c #D4CDC9",
"( 	c #D9D2CE",
") 	c #DCD4D0",
"* 	c #E0D8D4",
"+ 	c #E0D9D5",
", 	c #E2DAD5",
"- 	c #E3DBD6",
". 	c #E4DDD7",
"0 	c #EDE4DF",
"1 	c #E1D9D3",
"2 	c #949495",
"3 	c #BAB8B8",
"4 	c #EEE6E2",
"5 	c #E1DAD6",
"6 	c #E2D9D5",
"7 	c #E1D7D2",
"8 	c #DCD3CD",
"9 	c #D9CFCA",
": 	c #D7CACA",
"; 	c #D1C4C6",
"< 	c #CEC1C4",
"= 	c #CBBFC2",
"> 	c #C7BBBF",
"? 	c #C7BABC",
"@ 	c #B9B5B9",
"A 	c #C6C0C0",
"B 	c #C4C0C2",
"C 	c #C8C4C6",
"D 	c #CCC8CA",
"E 	c #C4C2C7",
"F 	c #C0BCBB",
"G 	c #D3CECF",
"H 	c #D3CFD1",
"I 	c #D7D3D5",
"J 	c #D8D4D6",
"K 	c #DAD6D8",
"L 	c #E2DDE0",
"M 	c #D3D0D1",
"N 	c #909395",
"O 	c #B7B8BB",
"P 	c #E5E1E2",
"Q 	c #D7D4D6",
"R 	c #D6D2D4",
"S 	c #D4D0D2",
"T 	c #D1CDCF",
"U 	c #CEC8CA",
"V 	c #CBC5C6",
"W 	c #C9C3C4",
"X 	c #C7C0C0",
"Y 	c #C5BEBF",
"Z 	c #C3BDBD",
"[ 	c #C5BDBA",
"] 	c #C2BDBF",
"^ 	c #C8C3C3",
"_ 	c #CCC7CA",
"` 	c #D0CCCF",
"a 	c #B8B4B4",
"b 	c #796F6C",
"c 	c #A6A0A1",
"d 	c #DAD7D9",
"e 	c #CFCDCE",
"f 	c #DAD5D5",
"g 	c #DDDBDD",
"h 	c #E6E2E5",
"i 	c #D8D5D6",
"j 	c #8D9397",
"k 	c #BABCBF",
"l 	c #EAE7E8",
"m 	c #DDD9DB",
"n 	c #DBD7D9",
"o 	c #D5D1D3",
"p 	c #D2CECF",
"q 	c #CECACB",
"r 	c #CBC6C8",
"s 	c #C8C3C5",
"t 	c #C5C0C2",
"u 	c #C2BDBE",
"v 	c #C2BCBC",
"w 	c #B9B4B6",
"x 	c #CBC5C5",
"y 	c #C2BEC0",
"z 	c #C0BBBE",
"{ 	c #B0ABAB",
"| 	c #ACA7A8",
"} 	c #645B58",
"~ 	c #352225",
" !	c #625552",
"!!	c #534A49",
"#!	c #453836",
"$!	c #786E6B",
"%!	c #C4BFBF",
"&!	c #E2DFE0",
"'!	c #DCD8DA",
"(!	c #90989C",
")!	c #C0C2C6",
"*!	c #EDEAEC",
"+!	c #E0DDDF",
",!	c #DFDCDE",
"-!	c #DDDADC",
".!	c #DAD5D8",
"0!	c #D0CBCD",
"1!	c #CCC7C9",
"2!	c #AEACB2",
"3!	c #7C777E",
"4!	c #B6ABA7",
"5!	c #BEB8B9",
"6!	c #D1CBC9",
"7!	c #9E9593",
"8!	c #615B5A",
"9!	c #58504C",
":!	c #231519",
";!	c #5D5052",
"<!	c #938F8F",
"=!	c #6A6562",
">!	c #594E4C",
"?!	c #544F4F",
"@!	c #99908D",
"A!	c #D8D2D1",
"B!	c #D2CECC",
"C!	c #8C9498",
"D!	c #C5C7CB",
"E!	c #F3EFF1",
"F!	c #E4E1E3",
"G!	c #E3E0E2",
"H!	c #E2DFE1",
"I!	c #DFDBDD",
"J!	c #DAD6D9",
"K!	c #D4D0D1",
"L!	c #51516B",
"M!	c #2F2C3A",
"N!	c #878171",
"O!	c #CAC3C0",
"P!	c #C5BFBF",
"Q!	c #D8CFCC",
"R!	c #C7C3C6",
"S!	c #ADABA7",
"T!	c #B5AEAA",
"U!	c #B6B2B5",
"V!	c #241B29",
"W!	c #D3C3B1",
"X!	c #E5E3E5",
"Y!	c #E6E4E6",
"Z!	c #E8E6E8",
"[!	c #534B4F",
"]!	c #A59183",
"^!	c #E3DDDC",
"_!	c #C5C2C2",
"`!	c #8B9296",
"a!	c #CED0D3",
"b!	c #F7F3F5",
"c!	c #E8E5E8",
"d!	c #E6E3E5",
"e!	c #E5E2E4",
"f!	c #E0DCDE",
"g!	c #ABA4A5",
"h!	c #241C2F",
"i!	c #5A4A3A",
"j!	c #B9ACA4",
"k!	c #CDC8CA",
"l!	c #CBC6C6",
"m!	c #CDC5C3",
"n!	c #DBD3CE",
"o!	c #D0CDCF",
"p!	c #D4D1D3",
"q!	c #D8D5D7",
"r!	c #93919F",
"s!	c #44352F",
"t!	c #E1DDDB",
"u!	c #E5E2E5",
"v!	c #E7E5E7",
"w!	c #B0B1B4",
"x!	c #665247",
"y!	c #BCB6AD",
"z!	c #C7C1BE",
"{!	c #CFCBC8",
"|!	c #8B9498",
"}!	c #D2D5D7",
"~!	c #F8F5F7",
" #	c #EAE7EA",
"!#	c #E6E4E5",
"##	c #E5E1E3",
"$#	c #DEDBDD",
"%#	c #7E6F70",
"&#	c #2B1D30",
"'#	c #967F76",
"(#	c #D8D3D5",
")#	c #CECACC",
"*#	c #CCC6C7",
"+#	c #CEC6C5",
",#	c #D9D1CD",
"-#	c #CFCCCE",
".#	c #D2D0D2",
"0#	c #5C5766",
"1#	c #674F3C",
"2#	c #E0DEE0",
"3#	c #E3E1E4",
"4#	c #635955",
"5#	c #88796C",
"6#	c #CAC6C6",
"7#	c #EBE8E9",
"8#	c #D0CFD1",
"9#	c #8A9599",
":#	c #D5D7DA",
";#	c #F8F6F8",
"<#	c #EBE9EB",
"=#	c #D9D6DB",
">#	c #786F6E",
"?#	c #402931",
"@#	c #C2B6A1",
"A#	c #DAD5D7",
"B#	c #CBC6C7",
"C#	c #CFC6C4",
"D#	c #D7CFCC",
"E#	c #CFCACD",
"F#	c #D2CED1",
"G#	c #D6D3D5",
"H#	c #2C243C",
"I#	c #B49773",
"J#	c #E3E1E3",
"K#	c #615755",
"L#	c #5B4844",
"M#	c #D8D4D2",
"N#	c #E7E5E5",
"O#	c #F3F0F2",
"P#	c #CACACC",
"Q#	c #889095",
"R#	c #D9DADD",
"S#	c #F9F6F7",
"T#	c #E8E7EA",
"U#	c #E8E7E8",
"V#	c #897E7F",
"W#	c #402B30",
"X#	c #ADA4A1",
"Y#	c #D9D5D7",
"Z#	c #D1CCCE",
"[#	c #CCC9CA",
"]#	c #CAC5C6",
"^#	c #D1C6C3",
"_#	c #D5CECB",
"`#	c #D3D0D2",
"a#	c #2F1F2A",
"b#	c #BFB4A8",
"c#	c #55474E",
"d#	c #483538",
"e#	c #C5C1C1",
"f#	c #E6E5E7",
"g#	c #E8E5E7",
"h#	c #F6F2F4",
"i#	c #C8C7C9",
"j#	c #8B9396",
"k#	c #DEDEE0",
"l#	c #F8F6F7",
"m#	c #C9BEBB",
"n#	c #4E4246",
"o#	c #4E3637",
"p#	c #8E8584",
"q#	c #BAB7BB",
"r#	c #C8C4C5",
"s#	c #D5D0D1",
"t#	c #D0CCCE",
"u#	c #CDC9CA",
"v#	c #D1C7C3",
"w#	c #D4CCCC",
"x#	c #D4D1D2",
"y#	c #BBB7BE",
"z#	c #422E2B",
"{#	c #AEA9A8",
"|#	c #433942",
"}#	c #413237",
"~#	c #C4BEBF",
" $	c #E8E6E7",
"!$	c #E8E5E6",
"#$	c #EAE7E9",
"$$	c #F7F4F5",
"%$	c #C9CACC",
"&$	c #8E9598",
"'$	c #F9F6F8",
"($	c #EEECEE",
")$	c #CECCD2",
"*$	c #9F9D9D",
"+$	c #9A9495",
",$	c #6A6061",
"-$	c #5C4A47",
".$	c #81736B",
"0$	c #B0AAAA",
"1$	c #D1CCCB",
"2$	c #C9C5C6",
"3$	c #D2C8C5",
"4$	c #D3CDCE",
"5$	c #D2CFD0",
"6$	c #ACA7AA",
"7$	c #2D191E",
"8$	c #3D2D32",
"9$	c #53484A",
":$	c #D5D1D1",
";$	c #E9E7E9",
"<$	c #EBE9EA",
"=$	c #ECE9EB",
">$	c #F9F5F7",
"?$	c #C8C9CB",
"@$	c #8E9599",
"A$	c #E5E4E7",
"B$	c #FAF8F9",
"C$	c #EFEDEF",
"D$	c #ECEAED",
"E$	c #EBE8EA",
"F$	c #E5E2E3",
"G$	c #C1BEC3",
"H$	c #6B585A",
"I$	c #7B6F6C",
"J$	c #CFC9C6",
"K$	c #D0CCCD",
"L$	c #CAC6C7",
"M$	c #D3CAC6",
"N$	c #D1CBCA",
"O$	c #D2CDCE",
"P$	c #635859",
"Q$	c #2D1922",
"R$	c #807C7F",
"S$	c #E5E3E4",
"T$	c #E7E6E7",
"U$	c #ECEAEC",
"V$	c #C6C7C9",
"W$	c #90979A",
"X$	c #E7E6E8",
"Y$	c #F9F8F9",
"Z$	c #EFEDEE",
"[$	c #EAE8E9",
"]$	c #E7E4E5",
"^$	c #B3B0B5",
"_$	c #563D41",
"`$	c #9C908E",
"a$	c #CEC9CA",
"b$	c #D3C9C4",
"c$	c #D2CAC8",
"d$	c #B4ADA7",
"e$	c #635B5E",
"f$	c #31232A",
"g$	c #776967",
"h$	c #E4E1E2",
"i$	c #E7E3E5",
"j$	c #ECE9EA",
"k$	c #F9F5F6",
"l$	c #C2C3C4",
"m$	c #8F9699",
"n$	c #E9E7E8",
"o$	c #EFECED",
"p$	c #E1DFE1",
"q$	c #58525E",
"r$	c #59403D",
"s$	c #807371",
"t$	c #D1CDCE",
"u$	c #D1CBCB",
"v$	c #C9C4C5",
"w$	c #D2CAC6",
"x$	c #CCC7C8",
"y$	c #9C948D",
"z$	c #7A6D6A",
"{$	c #776E75",
"|$	c #C6BCAC",
"}$	c #DDDADB",
"~$	c #E1DEE0",
" %	c #F7F3F4",
"!%	c #BCBCBE",
"#%	c #8F9496",
"$%	c #F5F1F3",
"%%	c #EBE7E9",
"&%	c #B5B2B6",
"'%	c #4E3F3E",
"(%	c #473635",
")%	c #958C8D",
"*%	c #D6D2D3",
"+%	c #D3D0D0",
",%	c #CFCACB",
"-%	c #C6C1C2",
".%	c #D0C5C1",
"0%	c #B0ACB1",
"1%	c #B5AEA8",
"2%	c #D2CDCF",
"3%	c #C3B9BA",
"4%	c #D4CFC7",
"5%	c #D8D6D8",
"6%	c #DBD8DA",
"7%	c #DFDCDD",
"8%	c #E1DFE0",
"9%	c #E7E5E6",
":%	c #F4F0F0",
";%	c #B9BBBD",
"<%	c #909597",
"=%	c #E6E3E4",
">%	c #F2EEF0",
"?%	c #D4D2D3",
"@%	c #6E6669",
"A%	c #52403F",
"B%	c #8B8182",
"C%	c #DAD6D7",
"D%	c #D5D1D2",
"E%	c #CDC7C9",
"F%	c #C7C3C4",
"G%	c #CCC3BF",
"H%	c #BAB0B3",
"I%	c #B1A3A1",
"J%	c #CECACA",
"K%	c #D3CECD",
"L%	c #D9D6D8",
"M%	c #DFDDDE",
"N%	c #F2EDEE",
"O%	c #B7B9BB",
"P%	c #919597",
"Q%	c #E4E0E1",
"R%	c #DCDADB",
"S%	c #B2AEB0",
"T%	c #7F7777",
"U%	c #C4C0C0",
"V%	c #DFDBDC",
"W%	c #DCD8D9",
"X%	c #D7D3D4",
"Y%	c #C5C0C0",
"Z%	c #C1BBBC",
"[%	c #C8C0BB",
"]%	c #C7BDB8",
"^%	c #C7BFBB",
"_%	c #D6D3D4",
"`%	c #DBD8DB",
"a%	c #DDDBDC",
"b%	c #E3E0E1",
"c%	c #AFB1B3",
"d%	c #8F9294",
"e%	c #E0DCDD",
"f%	c #E9E5E7",
"g%	c #DEDADC",
"h%	c #D2CED0",
"i%	c #CDC8C9",
"j%	c #C8C4C4",
"k%	c #C6C0C2",
"l%	c #C2BCBD",
"m%	c #BDB8B8",
"n%	c #C7BEB9",
"o%	c #C6BEBA",
"p%	c #C7C2C3",
"q%	c #CBC7C8",
"r%	c #CFCBCC",
"s%	c #D1CFD0",
"t%	c #D7D5D6",
"u%	c #D9D7D8",
"v%	c #DEDCDE",
"w%	c #E7E4E6",
"x%	c #ACAFB1",
"y%	c #8E9192",
"z%	c #D8D5D5",
"{%	c #D9D5D6",
"|%	c #D7D2D4",
"}%	c #D1CECF",
"~%	c #C9C5C5",
" &	c #C5C0C1",
"!&	c #B9B4B4",
"#&	c #BBB2B4",
"$&	c #CDC3C6",
"%&	c #D5CACD",
"&&	c #DDD3D5",
"'&	c #E3D9DB",
"(&	c #E8DDDF",
")&	c #ECE1E3",
"*&	c #EDE4E5",
"+&	c #EFE7E8",
",&	c #F1E9E9",
"-&	c #F0E8E9",
".&	c #F1E9EA",
"0&	c #F7F0F0",
"1&	c #ACAEB0",
"2&	c #919093",
"3&	c #F1E7E3",
"4&	c #FDF6ED",
"5&	c #EFEADF",
"6&	c #E6E0D8",
"7&	c #E9E2D9",
"8&	c #EAE2DC",
"9&	c #E3DAD8",
":&	c #DDD4D2",
";&	c #D7CFCB",
"<&	c #CFC6C2",
"=&	c #CEC4BF",
"                                                                ",
"                                                                ",
"                                                                ",
"                                                                ",
"                                                                ",
"                                                                ",
"    # $ % & ' ( ) * + , - . 0 1 2 3 4 5 6 7 8 9 : ; < = > ?     ",
"    @ A B C D E F G H I J K L M N O P Q R S T U V W X Y Z [     ",
"    ] ^ C _ ` a b c d e f g h i j k l m n J o p q r s t u v w   ",
"    x y z { | } ~  !!!#!$!%!&!'!(!)!*!+!,!-!.!R H 0!1!2!3!4!5!  ",
"    6!v 7!8!9!:!;!<!=!>!?!@!A!B!C!D!E!F!G!H!I!J!I K!L!M!N!O!P!  ",
"    Q!R!S!T!U!V!W!X!Y!Z![!]!^!_!`!a!b!c!d!e!G!f!g!h!i!j!k!l!m!  ",
"    n!o!p!q!r!s!t!u!v!w!x!y!z!{!|!}!~! #!###$#%#&#'#(#H )#*#+#  ",
"    ,#-#.#Q 0#1#2#3#X!4#5#6#7#8#9#:#;#<#v!=#>#?#@#A#o p q B#C#  ",
"    D#E#F#G#H#I#2#J#K#L#M#N#O#P#Q#R#S#T#U#V#W#X#'!Y#o Z#[#]#^#  ",
"    _#0!`#I a#b#2#c#d#e#f#g#h#i#j#k#l#<#m#n#o#p#q#r#s#t#u#]#v#  ",
"    w#` x#y#z#{#|#}#~# $!$#$$$%$&$J#'$($)$*$+$,$-$.$0$1$q 2$3$  ",
"    4$5$I 6$7$8$9$:$g#;$<$=$>$?$@$A$B$C$D$E$ $F$G$H$I$J$K$L$M$  ",
"  N$O$H G#P$Q$R$G!S$T$;$E$U$S#V$W$X$Y$Z$*![$]$F!^$_$`$u#a$]#b$  ",
"  c$] d$e$f$g$f!&!h$i$ $#$j$k$l$m$n$S#o$7#!$p$q$r$s$t$u$a$v$v#  ",
"  w$x$y$z${$|$}$I!~$J#i$g#l  %!%#%g#$%%%!$&%'%(%)%*%+%,%6#-%.%  ",
"  v#0%1%2%3%4%5%6%7%8%F!]$9%:%;%<%=%>%?%@%A%B%C%K D%K$E%F%%!G%  ",
"  H%I%x K$J%K%J L%-!M%8%F!]$N%O%P%Q%R%S%T%U%V%W%X%Z#x$v$Y%Z%[%  ",
"  ]%^%2$u#2%S o _%Y#`%a%+!b%j$c%d%e%f%7%g%'!A#_%h%i%j%k%l%m%n%  ",
"  o%p%]#q%r%t#e s%?%t%u%6%v%w%x%y%z%b%d {%|%S }%,%~% &v m%!&    ",
"    #&$&%&&&'&(&)&*&+&,&-&.&0&1&2&3&4&5&6&7&8&9&:&;&3$<&G%=&    ",
"                                                                ",
"                                                                ",
"                                                                ",
"                                                                ",
"                                                                ",
"                                                                "};